<?xml version="1.0" encoding="iso-8859-1"?>
<!-- Uploaded to: SVG Repo, www.svgrepo.com, Generator: SVG Repo Mixer Tools -->
<svg version="1.1" id="Layer_1" xmlns="http://www.w3.org/2000/svg" xmlns:xlink="http://www.w3.org/1999/xlink" 
	 viewBox="0 0 512 512" xml:space="preserve">
<path style="fill:#F5DF5D;" d="M0,360.1V151.9c0-43.331,35.126-78.456,78.456-78.456h355.088c43.329,0,78.456,35.126,78.456,78.456
	v208.2c0,43.329-35.126,78.456-78.456,78.456H78.456C35.126,438.556,0,403.43,0,360.1z"/>
<path style="fill:#E45D4C;" d="M78.456,404.758c-24.623,0-44.658-20.033-44.658-44.658V151.9c0-24.624,20.033-44.658,44.658-44.658
	h355.088c24.623,0,44.658,20.033,44.658,44.658v208.2c0,24.624-20.033,44.658-44.658,44.658H78.456z"/>
<rect y="203.804" style="fill:#0069A3;" width="512" height="104.403"/>
<path style="opacity:0.2;enable-background:new    ;" d="M448.618,423.482H93.529c-43.329,0-78.455-35.126-78.455-78.456V136.827
	c0-17.822,5.952-34.247,15.962-47.42C12.182,103.736,0,126.391,0,151.9v208.2c0,43.329,35.126,78.456,78.456,78.456h355.088
	c25.509,0,48.164-12.181,62.493-31.036C482.865,417.531,466.439,423.482,448.618,423.482z"/>
<circle style="opacity:0.2;enable-background:new    ;" cx="245.331" cy="266.568" r="147.688"/>
<circle style="fill:#FFFFFF;" cx="255.899" cy="256" r="147.688"/>
<path style="opacity:0.2;enable-background:new    ;" d="M266.924,392.658c-81.566,0-147.688-66.122-147.688-147.688
	c0-37.977,14.34-72.602,37.894-98.769c-30.031,27.033-48.919,66.205-48.919,109.793c0,81.566,66.122,147.688,147.688,147.688
	c43.587,0,82.76-18.888,109.794-48.919C339.527,378.319,304.902,392.658,266.924,392.658z"/>
<g>
	<path style="fill:#7E858B;" d="M151.076,212.63c0-4.423,3.513-7.936,8.067-7.936c4.423,0,7.936,3.513,7.936,7.936v76.498
		c0,4.423-3.513,7.936-7.936,7.936c-4.554,0-8.067-3.513-8.067-7.936V212.63z"/>
	<path style="fill:#7E858B;" d="M189.065,286.266c-1.821-1.301-3.122-3.513-3.122-6.114c0-4.163,3.383-7.417,7.546-7.417
		c2.212,0,3.641,0.651,4.682,1.431c7.546,5.986,15.611,9.367,25.501,9.367c9.886,0,16.131-4.683,16.131-11.449v-0.259
		c0-6.505-3.641-10.018-20.555-13.92c-19.384-4.683-30.313-10.408-30.313-27.191v-0.261c0-15.611,13.01-26.41,31.093-26.41
		c11.449,0,20.686,2.992,28.883,8.456c1.822,1.041,3.513,3.253,3.513,6.374c0,4.163-3.383,7.415-7.546,7.415
		c-1.561,0-2.862-0.39-4.163-1.171c-7.024-4.554-13.79-6.895-20.946-6.895c-9.367,0-14.831,4.814-14.831,10.799v0.26
		c0,7.026,4.163,10.147,21.726,14.311c19.255,4.683,29.142,11.579,29.142,26.67v0.259c0,17.043-13.4,27.191-32.524,27.191
		C210.921,297.715,199.212,293.811,189.065,286.266z"/>
	<path style="fill:#7E858B;" d="M270.637,251.139v-0.26c0-25.629,19.775-47.096,47.747-47.096c27.97,0,47.487,21.206,47.487,46.835
		v0.26c0,25.63-19.775,47.096-47.747,47.096C290.152,297.974,270.637,276.769,270.637,251.139z M349.086,251.139v-0.26
		c0-17.693-12.879-32.395-30.963-32.395c-18.084,0-30.704,14.441-30.704,32.134v0.26c0,17.693,12.881,32.265,30.964,32.265
		S349.086,268.832,349.086,251.139z"/>
</g>
<g style="opacity:0.2;">
	<circle style="fill:#25292F;" cx="86.163" cy="368.154" r="8.509"/>
	<circle style="fill:#25292F;" cx="86.163" cy="143.835" r="8.509"/>
	<circle style="fill:#25292F;" cx="57.254" cy="256" r="8.509"/>
</g>
<g style="opacity:0.2;">
	<circle style="fill:#25292F;" cx="425.634" cy="368.154" r="8.509"/>
	<circle style="fill:#25292F;" cx="425.634" cy="143.835" r="8.509"/>
	<circle style="fill:#25292F;" cx="454.543" cy="256" r="8.509"/>
</g>
</svg>