<?xml version="1.0" encoding="iso-8859-1"?>
<!-- Uploaded to: SVG Repo, www.svgrepo.com, Generator: SVG Repo Mixer Tools -->
<svg version="1.1" id="Layer_1" xmlns="http://www.w3.org/2000/svg" xmlns:xlink="http://www.w3.org/1999/xlink" 
	 viewBox="0 0 512 512" xml:space="preserve">
<path style="fill:#F5DF5D;" d="M8.18,356.774V155.226c0-41.945,34.003-75.949,75.949-75.949h343.743
	c41.945,0,75.949,34.003,75.949,75.949v201.547c0,41.945-34.003,75.949-75.949,75.949H84.128
	C42.183,432.723,8.18,398.72,8.18,356.774z"/>
<path style="fill:#E45D4C;" d="M84.129,400.005c-23.838,0-43.231-19.393-43.231-43.231V155.226
	c0-23.838,19.393-43.231,43.231-43.231h343.742c23.837,0,43.231,19.393,43.231,43.231v201.547c0,23.838-19.393,43.231-43.231,43.231
	H84.129z"/>
<rect x="8.18" y="205.472" style="fill:#0069A3;" width="495.642" height="101.067"/>
<path style="opacity:0.2;enable-background:new    ;" d="M442.463,418.132H98.72c-41.945,0-75.949-34.003-75.949-75.949V140.634
	c0-17.252,5.762-33.153,15.453-45.905C19.971,108.6,8.18,130.533,8.18,155.225v201.548c0,41.945,34.003,75.949,75.949,75.949
	h343.743c24.694,0,46.625-11.792,60.497-30.044C475.617,412.37,459.716,418.132,442.463,418.132z"/>
<circle style="opacity:0.2;enable-background:new    ;" cx="245.672" cy="266.231" r="142.969"/>
<circle style="fill:#FFFFFF;" cx="255.902" cy="256.001" r="142.969"/>
<path style="opacity:0.2;enable-background:new    ;" d="M266.575,388.292c-78.96,0-142.969-64.009-142.969-142.969
	c0-36.764,13.881-70.283,36.683-95.613c-29.071,26.169-47.356,64.09-47.356,106.285c0,78.96,64.009,142.969,142.969,142.969
	c42.195,0,80.116-18.284,106.286-47.356C336.858,374.411,303.339,388.292,266.575,388.292z"/>
<g style="opacity:0.2;">
	<circle cx="91.589" cy="364.571" r="8.237"/>
	<circle cx="91.589" cy="147.419" r="8.237"/>
	<circle cx="63.605" cy="256.001" r="8.237"/>
</g>
<g style="opacity:0.2;">
	<circle cx="420.215" cy="364.571" r="8.237"/>
	<circle cx="420.215" cy="147.419" r="8.237"/>
	<circle cx="448.2" cy="256.001" r="8.237"/>
</g>
<path d="M227.6,243.99c-17.002-4.03-21.031-7.053-21.031-13.854v-0.252c0-5.793,5.289-10.454,14.357-10.454
	c6.928,0,13.476,2.266,20.277,6.675c1.26,0.756,2.519,1.133,4.03,1.133c4.03,0,7.305-3.149,7.305-7.178
	c0-3.022-1.637-5.163-3.401-6.171c-7.934-5.291-16.877-8.186-27.96-8.186c-17.505,0-30.1,10.454-30.1,25.566v0.253
	c0,16.246,10.579,21.787,29.344,26.322c16.373,3.778,19.898,7.178,19.898,13.476v0.251c0,6.549-6.045,11.083-15.615,11.083
	c-9.572,0-17.38-3.274-24.686-9.067c-1.008-0.755-2.392-1.385-4.533-1.385c-4.03,0-7.305,3.149-7.305,7.178
	c0,2.519,1.26,4.66,3.022,5.919c9.823,7.305,21.158,11.083,33.123,11.083c18.514,0,31.485-9.823,31.485-26.322v-0.251
	C255.812,255.199,246.24,248.523,227.6,243.99z M162.238,206.333c-4.408,0-7.809,3.401-7.809,7.682v74.054
	c0,4.282,3.401,7.682,7.809,7.682c4.282,0,7.682-3.401,7.682-7.682v-74.054C169.92,209.733,166.52,206.333,162.238,206.333z
	 M316.391,205.452c-27.078,0-46.221,20.781-46.221,45.591v0.252c0,24.81,18.891,45.339,45.968,45.339
	c27.078,0,46.221-20.781,46.221-45.591v-0.252C362.36,225.98,343.468,205.452,316.391,205.452z M346.112,251.295
	c0,17.128-12.216,30.982-29.722,30.982c-17.507,0-29.975-14.106-29.975-31.234v-0.252c0-17.128,12.216-31.108,29.723-31.108
	c17.507,0,29.973,14.231,29.973,31.36L346.112,251.295L346.112,251.295z M427.871,71.097H84.129C37.74,71.097,0,108.837,0,155.226
	v201.547c0,46.389,37.74,84.129,84.129,84.129h343.742c46.388,0,84.129-37.74,84.129-84.129V155.226
	C512,108.837,474.259,71.097,427.871,71.097z M495.641,356.774c0,37.368-30.401,67.77-67.77,67.77H84.129
	c-37.369,0-67.77-30.401-67.77-67.77V155.226c0-37.368,30.401-67.77,67.77-67.77h343.742c37.369,0,67.77,30.401,67.77,67.77V356.774
	z M255.902,104.849c-83.343,0-151.148,67.805-151.148,151.148s67.805,151.149,151.148,151.149
	c83.344,0,151.149-67.805,151.149-151.149C407.05,172.653,339.246,104.849,255.902,104.849z M255.902,390.786
	c-74.322,0-134.788-60.466-134.788-134.789s60.465-134.788,134.788-134.788c74.322,0,134.789,60.466,134.789,134.788
	C390.691,330.32,330.225,390.786,255.902,390.786z"/>
</svg>